<svg width="57" height="53" viewBox="0 0 57 53" fill="none" xmlns="http://www.w3.org/2000/svg">
<path d="M32.6562 23.6641L44.0234 40.6172C47.1745 45.3047 49.5052 48.2734 51.0156 49.5234C52.5521 50.7474 54.4922 51.4245 56.8359 51.5547V53H34.1016V51.5547C35.612 51.5286 36.7318 51.3724 37.4609 51.0859C38.0078 50.8516 38.4505 50.5 38.7891 50.0312C39.1536 49.5365 39.3359 49.0417 39.3359 48.5469C39.3359 47.9479 39.2188 47.349 38.9844 46.75C38.8021 46.3073 38.0859 45.1615 36.8359 43.3125L27.8516 29.7188L16.7578 43.9375C15.5859 45.4479 14.8828 46.4635 14.6484 46.9844C14.4141 47.4792 14.2969 48 14.2969 48.5469C14.2969 49.3802 14.6484 50.0703 15.3516 50.6172C16.0547 51.1641 17.3958 51.4766 19.375 51.5547V53H0.585938V51.5547C1.91406 51.4245 3.0599 51.151 4.02344 50.7344C5.63802 50.0573 7.17448 49.1458 8.63281 48C10.0911 46.8542 11.7578 45.0964 13.6328 42.7266L26.1328 26.9453L15.7031 11.6719C12.8646 7.53125 10.4557 4.82292 8.47656 3.54688C6.4974 2.24479 4.21875 1.55469 1.64062 1.47656V0.03125H26.1328V1.47656C24.0495 1.55469 22.6172 1.89323 21.8359 2.49219C21.0807 3.09115 20.7031 3.75521 20.7031 4.48438C20.7031 5.44792 21.3281 6.85417 22.5781 8.70312L30.7031 20.8516L40.1172 8.9375C41.2109 7.53125 41.875 6.56771 42.1094 6.04688C42.3698 5.52604 42.5 4.99219 42.5 4.44531C42.5 3.89844 42.3438 3.41667 42.0312 3C41.6406 2.45312 41.1458 2.07552 40.5469 1.86719C39.9479 1.63281 38.7109 1.5026 36.8359 1.47656V0.03125H55.625V1.47656C54.1406 1.55469 52.9297 1.78906 51.9922 2.17969C50.5859 2.77865 49.2969 3.58594 48.125 4.60156C46.9531 5.61719 45.2995 7.49219 43.1641 10.2266L32.6562 23.6641Z" fill="black"/>
</svg>
